<?xml version="1.0" standalone="no"?>
<!DOCTYPE svg PUBLIC "-//W3C//DTD SVG 20010904//EN"
 "http://www.w3.org/TR/2001/REC-SVG-20010904/DTD/svg10.dtd">
<svg version="1.0" xmlns="http://www.w3.org/2000/svg"
 width="500.000000pt" height="500.000000pt" viewBox="0 0 500.000000 500.000000"
 preserveAspectRatio="xMidYMid meet">

<g transform="translate(0.000000,500.000000) scale(0.100000,-0.100000)"
fill="#000000" stroke="none">
<path d="M0 2500 l0 -2500 2500 0 2500 0 0 2500 0 2500 -2500 0 -2500 0 0
-2500z m3740 920 c75 -12 228 -58 236 -71 7 -12 -26 -99 -37 -99 -5 0 -46 15
-91 34 -136 56 -229 77 -368 83 -200 9 -312 -27 -420 -135 -105 -105 -154
-242 -154 -432 0 -136 17 -210 75 -321 114 -220 340 -382 562 -405 124 -12
264 35 353 120 l49 47 27 -33 c15 -18 28 -36 28 -40 0 -14 -75 -58 -132 -78
-91 -32 -192 -43 -328 -37 -154 7 -229 25 -345 81 -179 87 -310 245 -360 436
-24 87 -24 253 -1 340 72 274 283 461 574 510 69 11 257 11 332 0z m-2570
-680 l0 -670 -55 0 -55 0 0 670 0 670 55 0 55 0 0 -670z m630 320 c146 -192
269 -348 274 -346 14 3 142 207 193 306 100 195 96 309 -14 356 -18 8 -48 14
-68 14 -19 0 -35 5 -35 10 0 6 94 10 261 10 243 0 305 -7 212 -25 -51 -9 -170
-131 -255 -260 -36 -55 -118 -181 -182 -279 l-118 -179 4 -226 c3 -206 5 -230
25 -273 25 -54 62 -78 123 -78 22 0 40 -4 40 -10 0 -6 -87 -10 -240 -10 -153
0 -240 4 -240 10 0 6 18 10 40 10 59 0 94 22 121 77 23 45 24 61 27 274 l4
226 -281 367 c-155 202 -281 369 -281 371 0 3 28 5 63 5 l62 -1 265 -349z
m1553 -167 c-5 -11 -8 -12 -13 -2 -5 7 -6 19 -3 26 5 11 8 12 13 2 5 -7 6 -19
3 -26z m-115 -95 c6 1 11 -4 10 -10 -2 -9 21 -15 77 -19 l80 -5 -67 -2 c-78
-2 -99 -9 -91 -28 4 -10 0 -12 -11 -8 -14 5 -16 -3 -16 -51 0 -35 -4 -54 -10
-50 -5 3 -10 29 -10 57 0 40 -3 49 -14 45 -10 -4 -13 -1 -10 8 7 17 -17 24
-101 28 -58 3 -57 3 14 5 89 2 111 17 111 73 0 68 15 79 20 14 3 -41 9 -59 18
-57z m-194 61 c-3 -5 -10 -7 -15 -3 -5 3 -7 10 -3 15 3 5 10 7 15 3 5 -3 7
-10 3 -15z m-236 -936 c-12 -15 -50 -14 -55 2 -1 6 13 10 32 11 28 0 32 -2 23
-13z m-1278 -98 c0 -43 -4 -75 -10 -75 -6 0 -10 32 -10 75 0 43 4 75 10 75 6
0 10 -32 10 -75z m194 59 c20 -19 20 -44 2 -70 -13 -16 -13 -22 0 -41 13 -20
13 -23 0 -23 -9 0 -20 9 -26 20 -6 12 -21 20 -35 20 -18 0 -25 -5 -25 -20 0
-11 -7 -20 -15 -20 -12 0 -15 15 -15 75 l0 75 49 0 c32 0 55 -6 65 -16z m196
6 c0 -5 -18 -10 -40 -10 -33 0 -40 -3 -40 -20 0 -16 7 -20 35 -20 19 0 35 -4
35 -10 0 -5 -16 -10 -35 -10 -31 0 -35 -3 -35 -25 0 -22 4 -25 40 -25 22 0 40
-4 40 -10 0 -5 -25 -10 -55 -10 l-55 0 0 75 0 75 55 0 c30 0 55 -4 55 -10z
m126 -41 l31 -52 29 52 c41 73 54 67 54 -24 0 -60 -3 -75 -15 -75 -11 0 -15
12 -15 48 l-1 47 -22 -37 c-12 -21 -26 -38 -30 -38 -4 0 -18 17 -30 38 l-22
37 -3 -47 c-2 -34 -7 -48 -18 -48 -11 0 -14 16 -14 75 0 91 12 96 56 24z m320
14 l21 -37 24 37 c37 56 54 45 19 -12 -17 -26 -30 -60 -30 -75 0 -14 -4 -26
-10 -26 -5 0 -10 10 -10 21 0 12 -14 46 -31 75 -20 36 -26 54 -17 54 7 0 23
-17 34 -37z m254 -34 c31 -68 33 -107 3 -61 -20 29 -78 31 -93 2 -11 -20 -30
-27 -30 -11 0 21 63 141 74 141 7 0 28 -32 46 -71z m217 54 c3 -8 -8 -10 -36
-6 -49 7 -71 -8 -71 -48 0 -36 26 -61 59 -57 20 2 27 9 29 31 5 39 22 34 22
-7 0 -37 -12 -46 -61 -46 -37 0 -79 39 -79 73 0 13 10 36 21 51 18 23 27 27
67 24 25 -2 47 -8 49 -15z m137 -34 c31 -55 30 -56 67 14 33 62 49 49 49 -38
0 -59 -3 -75 -14 -75 -11 0 -16 14 -18 48 l-3 47 -22 -37 c-12 -21 -26 -38
-31 -38 -4 0 -18 17 -30 38 l-22 37 0 -47 c0 -36 -4 -48 -15 -48 -12 0 -15 15
-15 75 0 91 13 97 54 24z m218 -5 c2 -41 8 -60 21 -68 32 -20 52 4 55 68 2 43
7 56 19 56 13 0 15 -10 11 -59 -5 -70 -19 -91 -62 -91 -52 0 -67 18 -73 88 -5
52 -3 62 10 62 12 0 17 -13 19 -56z m289 46 c23 -13 26 -62 4 -80 -12 -10 -12
-15 2 -36 12 -19 13 -24 2 -24 -8 0 -20 9 -27 20 -7 11 -23 20 -37 20 -18 0
-25 -5 -25 -20 0 -11 -4 -20 -10 -20 -6 0 -10 32 -10 75 l0 75 41 0 c22 0 49
-5 60 -10z m-1501 -305 c11 -13 7 -14 -33 -9 -41 6 -46 4 -62 -20 -14 -22 -16
-32 -7 -51 13 -28 57 -43 82 -27 10 6 21 8 24 5 10 -10 -15 -33 -36 -33 -17 0
-18 -3 -8 -15 15 -18 5 -35 -23 -35 -19 1 -20 2 -6 13 17 13 15 37 -4 37 -6 0
-21 10 -34 22 -50 47 -14 128 58 128 20 0 42 -7 49 -15z m180 -56 c31 -68 33
-107 3 -61 -20 29 -78 31 -93 2 -11 -20 -30 -27 -30 -11 0 21 63 141 74 141 7
0 28 -32 46 -71z m120 34 c21 -35 23 -36 34 -19 22 37 44 61 51 54 4 -3 -5
-24 -19 -45 -15 -21 -26 -52 -26 -70 0 -23 -5 -33 -15 -33 -10 0 -15 10 -15
26 0 15 -13 49 -30 75 -21 34 -26 49 -16 49 8 0 24 -17 36 -37z m180 0 l0 -37
38 37 c48 46 79 50 34 4 l-32 -33 36 -42 c41 -49 25 -57 -22 -11 -35 34 -54
32 -54 -7 0 -15 -6 -24 -15 -24 -12 0 -15 15 -15 75 0 60 3 75 15 75 11 0 15
-11 15 -37z m275 -40 c24 -52 30 -73 20 -73 -7 0 -17 9 -20 20 -9 30 -77 28
-98 -2 -29 -44 -27 -10 5 61 20 46 36 71 46 69 7 -2 29 -36 47 -75z m196 67
c23 -13 26 -62 4 -80 -12 -10 -12 -15 2 -36 12 -19 13 -24 2 -24 -8 0 -20 9
-27 20 -7 11 -23 20 -37 20 -18 0 -25 -5 -25 -20 0 -11 -4 -20 -10 -20 -6 0
-10 32 -10 75 l0 75 41 0 c22 0 49 -5 60 -10z m178 -27 c41 -81 51 -113 36
-113 -7 0 -17 9 -20 20 -5 16 -15 20 -47 20 -31 0 -41 -4 -45 -20 -3 -11 -12
-20 -20 -20 -8 0 -13 4 -11 8 36 87 65 142 75 142 7 0 21 -17 32 -37z"/>
<path d="M1640 1850 c0 -29 2 -31 33 -28 27 2 32 7 32 28 0 21 -5 26 -32 28
-31 3 -33 1 -33 -28z"/>
<path d="M2561 1847 c-15 -38 -15 -37 14 -37 28 0 30 5 10 40 l-13 25 -11 -28z"/>
<path d="M3400 1850 c0 -27 3 -30 34 -30 22 0 36 6 40 16 9 24 -12 44 -45 44
-26 0 -29 -4 -29 -30z"/>
<path d="M2101 1547 c-15 -38 -15 -37 14 -37 28 0 30 5 10 40 l-13 25 -11 -28z"/>
<path d="M2672 1545 c-16 -35 -16 -35 14 -35 22 0 24 3 19 23 -11 36 -21 39
-33 12z"/>
<path d="M2850 1550 c0 -27 3 -30 34 -30 22 0 36 6 40 16 9 24 -12 44 -45 44
-26 0 -29 -4 -29 -30z"/>
<path d="M3063 1540 c-11 -29 -10 -30 18 -30 l30 0 -16 30 c-9 17 -17 30 -18
30 -1 0 -8 -13 -14 -30z"/>
</g>
</svg>
